<svg width="85" height="17" viewBox="0 0 85 17" fill="none" xmlns="http://www.w3.org/2000/svg">
<path fill-rule="evenodd" clip-rule="evenodd" d="M8.49995 12.7501L5.60685 14.2711C5.26058 14.4531 4.83231 14.32 4.65026 13.9737C4.57777 13.8358 4.55276 13.6779 4.57909 13.5244L5.13163 10.3028L2.79106 8.02134C2.51092 7.74828 2.50519 7.29982 2.77825 7.01969C2.88699 6.90814 3.02947 6.83554 3.18362 6.81314L6.41821 6.34313L7.86476 3.4121C8.0379 3.06129 8.46263 2.91726 8.81344 3.09039C8.95313 3.15934 9.0662 3.2724 9.13514 3.4121L10.5817 6.34313L13.8163 6.81314C14.2034 6.8694 14.4716 7.22884 14.4154 7.61597C14.393 7.77013 14.3204 7.91261 14.2088 8.02134L11.8683 10.3028L12.4208 13.5244C12.4869 13.9099 12.228 14.2761 11.8424 14.3422C11.6889 14.3686 11.5309 14.3436 11.3931 14.2711L8.49995 12.7501Z" fill="#FBBF24"/>
<path fill-rule="evenodd" clip-rule="evenodd" d="M25.5 12.7501L22.6068 14.2711C22.2606 14.4531 21.8323 14.32 21.6503 13.9737C21.5778 13.8358 21.5528 13.6779 21.5791 13.5244L22.1316 10.3028L19.7911 8.02134C19.5109 7.74828 19.5052 7.29982 19.7783 7.01969C19.887 6.90814 20.0295 6.83554 20.1836 6.81314L23.4182 6.34313L24.8648 3.4121C25.0379 3.06129 25.4626 2.91726 25.8134 3.09039C25.9531 3.15934 26.0662 3.2724 26.1351 3.4121L27.5817 6.34313L30.8163 6.81314C31.2034 6.8694 31.4716 7.22884 31.4154 7.61597C31.393 7.77013 31.3204 7.91261 31.2088 8.02134L28.8683 10.3028L29.4208 13.5244C29.4869 13.9099 29.228 14.2761 28.8424 14.3422C28.6889 14.3686 28.5309 14.3436 28.3931 14.2711L25.5 12.7501Z" fill="#FBBF24"/>
<path fill-rule="evenodd" clip-rule="evenodd" d="M42.5 12.7501L39.6068 14.2711C39.2606 14.4531 38.8323 14.32 38.6503 13.9737C38.5778 13.8358 38.5528 13.6779 38.5791 13.5244L39.1316 10.3028L36.7911 8.02134C36.5109 7.74828 36.5052 7.29982 36.7783 7.01969C36.887 6.90814 37.0295 6.83554 37.1836 6.81314L40.4182 6.34313L41.8648 3.4121C42.0379 3.06129 42.4626 2.91726 42.8134 3.09039C42.9531 3.15934 43.0662 3.2724 43.1351 3.4121L44.5817 6.34313L47.8163 6.81314C48.2034 6.8694 48.4716 7.22884 48.4154 7.61597C48.393 7.77013 48.3204 7.91261 48.2088 8.02134L45.8683 10.3028L46.4208 13.5244C46.4869 13.9099 46.228 14.2761 45.8424 14.3422C45.6889 14.3686 45.5309 14.3436 45.3931 14.2711L42.5 12.7501Z" fill="#FBBF24"/>
<path fill-rule="evenodd" clip-rule="evenodd" d="M59.5 12.7501L56.6068 14.2711C56.2606 14.4531 55.8323 14.32 55.6503 13.9737C55.5778 13.8358 55.5528 13.6779 55.5791 13.5244L56.1316 10.3028L53.7911 8.02134C53.5109 7.74828 53.5052 7.29982 53.7783 7.01969C53.887 6.90814 54.0295 6.83554 54.1836 6.81314L57.4182 6.34313L58.8648 3.4121C59.0379 3.06129 59.4626 2.91726 59.8134 3.09039C59.9531 3.15934 60.0662 3.2724 60.1351 3.4121L61.5817 6.34313L64.8163 6.81314C65.2034 6.8694 65.4716 7.22884 65.4154 7.61597C65.393 7.77013 65.3204 7.91261 65.2088 8.02134L62.8683 10.3028L63.4208 13.5244C63.4869 13.9099 63.228 14.2761 62.8424 14.3422C62.6889 14.3686 62.5309 14.3436 62.3931 14.2711L59.5 12.7501Z" fill="#FBBF24"/>
<path fill-rule="evenodd" clip-rule="evenodd" d="M76.5 12.7501L73.6068 14.2711C73.2606 14.4531 72.8323 14.32 72.6503 13.9737C72.5778 13.8358 72.5528 13.6779 72.5791 13.5244L73.1316 10.3028L70.7911 8.02134C70.5109 7.74828 70.5052 7.29982 70.7783 7.01969C70.887 6.90814 71.0295 6.83554 71.1836 6.81314L74.4182 6.34313L75.8648 3.4121C76.0379 3.06129 76.4626 2.91726 76.8134 3.09039C76.9531 3.15934 77.0662 3.2724 77.1351 3.4121L78.5817 6.34313L81.8163 6.81314C82.2034 6.8694 82.4716 7.22884 82.4154 7.61597C82.393 7.77013 82.3204 7.91261 82.2088 8.02134L79.8683 10.3028L80.4208 13.5244C80.4869 13.9099 80.228 14.2761 79.8424 14.3422C79.6889 14.3686 79.5309 14.3436 79.3931 14.2711L76.5 12.7501Z" fill="#D1D5DB"/>
</svg>
