<svg width="27" height="27" viewBox="0 0 27 27" fill="none" xmlns="http://www.w3.org/2000/svg">
<path d="M13.5 2.25C7.29 2.25 2.25 7.29 2.25 13.5C2.25 19.71 7.29 24.75 13.5 24.75C19.71 24.75 24.75 19.71 24.75 13.5C24.75 7.29 19.71 2.25 13.5 2.25ZM21.8925 10.26L18.765 11.5538C18.4832 10.7956 18.0407 10.1075 17.4678 9.53656C16.895 8.96563 16.2053 8.52545 15.4462 8.24625L16.74 5.11875C19.1025 6.01875 20.9812 7.8975 21.8925 10.26ZM13.5 16.875C11.6325 16.875 10.125 15.3675 10.125 13.5C10.125 11.6325 11.6325 10.125 13.5 10.125C15.3675 10.125 16.875 11.6325 16.875 13.5C16.875 15.3675 15.3675 16.875 13.5 16.875ZM10.2712 5.1075L11.5875 8.235C10.8195 8.51489 10.1217 8.9588 9.54271 9.53584C8.96373 10.1129 8.51747 10.8092 8.235 11.5763L5.1075 10.2712C5.55861 9.09692 6.25137 8.03044 7.14091 7.14091C8.03044 6.25137 9.09692 5.55861 10.2712 5.1075ZM5.1075 16.7288L8.235 15.435C8.5155 16.2001 8.95991 16.8946 9.53708 17.4698C10.1143 18.045 10.8102 18.4871 11.5763 18.765L10.26 21.8925C9.08817 21.4393 8.02427 20.7457 7.13684 19.8563C6.2494 18.967 5.55811 17.9016 5.1075 16.7288ZM16.74 21.8925L15.4462 18.765C16.2089 18.4824 16.9008 18.0372 17.4739 17.4602C18.047 16.8832 18.4876 16.1883 18.765 15.4237L21.8925 16.74C21.4399 17.9103 20.7478 18.9732 19.8605 19.8605C18.9732 20.7478 17.9103 21.4399 16.74 21.8925Z" fill="#4B5869"/>
</svg>
