<svg width="35" height="33" viewBox="0 0 35 33" fill="none" xmlns="http://www.w3.org/2000/svg">
<path d="M10.5 3.30005C9.57174 3.30005 8.6815 3.64773 8.02513 4.2666C7.36875 4.88547 7 5.72483 7 6.60005V26.4001C7 27.2753 7.36875 28.1146 8.02513 28.7335C8.6815 29.3524 9.57174 29.7001 10.5 29.7001H27.125C27.3571 29.7001 27.5796 29.6131 27.7437 29.4584C27.9078 29.3037 28 29.0939 28 28.875C28 28.6562 27.9078 28.4464 27.7437 28.2917C27.5796 28.137 27.3571 28.0501 27.125 28.0501H10.5C10.0359 28.0501 9.59075 27.8762 9.26256 27.5668C8.93437 27.2573 8.75 26.8377 8.75 26.4001H26.25C26.7141 26.4001 27.1592 26.2262 27.4874 25.9168C27.8156 25.6073 28 25.1877 28 24.75V6.60005C28 5.72483 27.6313 4.88547 26.9749 4.2666C26.3185 3.64773 25.4283 3.30005 24.5 3.30005H10.5ZM18.8125 9.48755C18.8125 9.81575 18.6742 10.1305 18.4281 10.3626C18.1819 10.5947 17.8481 10.725 17.5 10.725C17.1519 10.725 16.8181 10.5947 16.5719 10.3626C16.3258 10.1305 16.1875 9.81575 16.1875 9.48755C16.1875 9.15934 16.3258 8.84458 16.5719 8.6125C16.8181 8.38043 17.1519 8.25005 17.5 8.25005C17.8481 8.25005 18.1819 8.38043 18.4281 8.6125C18.6742 8.84458 18.8125 9.15934 18.8125 9.48755ZM18.375 20.625C18.375 20.8439 18.2828 21.0537 18.1187 21.2084C17.9546 21.3631 17.7321 21.4501 17.5 21.4501C17.2679 21.4501 17.0454 21.3631 16.8813 21.2084C16.7172 21.0537 16.625 20.8439 16.625 20.625V14.025C16.625 13.8062 16.7172 13.5964 16.8813 13.4417C17.0454 13.287 17.2679 13.2 17.5 13.2C17.7321 13.2 17.9546 13.287 18.1187 13.4417C18.2828 13.5964 18.375 13.8062 18.375 14.025V20.625Z" fill="#4B5869"/>
</svg>
