<svg width="24" height="24" viewBox="0 0 24 24" fill="none" xmlns="http://www.w3.org/2000/svg">
<path d="M16.6461 7.05374L18.0861 8.49374L13.2061 13.3737L9.91606 10.0837C9.52606 9.69374 8.89606 9.69374 8.50606 10.0837L2.50606 16.0937C2.11606 16.4837 2.11606 17.1137 2.50606 17.5037C2.89606 17.8937 3.52606 17.8937 3.91606 17.5037L9.20606 12.2037L12.4961 15.4937C12.8861 15.8837 13.5161 15.8837 13.9061 15.4937L19.4961 9.91374L20.9361 11.3537C21.2461 11.6637 21.7861 11.4437 21.7861 11.0037V6.70374C21.7961 6.42374 21.5761 6.20374 21.2961 6.20374H17.0061C16.5561 6.20374 16.3361 6.74374 16.6461 7.05374Z" fill="#779ACF"/>
</svg>
