<svg width="133" height="39" viewBox="0 0 133 39" fill="none" xmlns="http://www.w3.org/2000/svg">
<path d="M8.26502 38.9567L8.20657 39L8.14519 38.9567H2.89919C2.13001 38.9561 1.39259 38.7294 0.848975 38.3265C0.305356 37.9235 -3.90032e-07 37.3772 0 36.8076V2.14911C0.00534843 1.58073 0.312423 1.03672 0.854889 0.634599C1.39735 0.23248 2.13166 0.00453337 2.89919 0H55.5522C57.1537 0 58.4513 0.963096 58.4513 2.14911V36.8076C58.446 37.376 58.1389 37.92 57.5965 38.3221C57.054 38.7242 56.3197 38.9522 55.5522 38.9567H8.26502ZM52.6062 25.9711V4.32852H5.84513V34.6282L35.0708 12.9856L52.6062 25.9711ZM52.6062 32.0916L35.0708 19.1061L14.1102 34.6282H52.6062V32.0916ZM17.5354 17.3141C15.9852 17.3141 14.4984 16.858 13.4023 16.0463C12.3061 15.2345 11.6903 14.1336 11.6903 12.9856C11.6903 11.8376 12.3061 10.7366 13.4023 9.92484C14.4984 9.11308 15.9852 8.65704 17.5354 8.65704C19.0856 8.65704 20.5724 9.11308 21.6685 9.92484C22.7647 10.7366 23.3805 11.8376 23.3805 12.9856C23.3805 14.1336 22.7647 15.2345 21.6685 16.0463C20.5724 16.858 19.0856 17.3141 17.5354 17.3141Z" fill="#6B7094"/>
<path d="M82.4147 38.9567L82.3563 39L82.2949 38.9567H77.0489C76.2797 38.9561 75.5423 38.7294 74.9987 38.3265C74.4551 37.9235 74.1497 37.3772 74.1497 36.8076V2.14911C74.155 1.58073 74.4621 1.03672 75.0046 0.634599C75.5471 0.23248 76.2814 0.00453337 77.0489 0H129.702C131.303 0 132.601 0.963096 132.601 2.14911V36.8076C132.596 37.376 132.289 37.92 131.746 38.3221C131.204 38.7242 130.469 38.9522 129.702 38.9567H82.4147ZM126.756 25.9711V4.32852H79.9948V34.6282L109.221 12.9856L126.756 25.9711ZM126.756 32.0916L109.221 19.1061L88.2599 34.6282H126.756V32.0916ZM91.6851 17.3141C90.1349 17.3141 88.6481 16.858 87.552 16.0463C86.4558 15.2345 85.84 14.1336 85.84 12.9856C85.84 11.8376 86.4558 10.7366 87.552 9.92484C88.6481 9.11308 90.1349 8.65704 91.6851 8.65704C93.2353 8.65704 94.7221 9.11308 95.8182 9.92484C96.9144 10.7366 97.5302 11.8376 97.5302 12.9856C97.5302 14.1336 96.9144 15.2345 95.8182 16.0463C94.7221 16.858 93.2353 17.3141 91.6851 17.3141Z" fill="#6B7094"/>
</svg>
