<svg width="27" height="25" viewBox="0 0 27 25" fill="none" xmlns="http://www.w3.org/2000/svg">
<path d="M3.8178 24.3L3.7908 24.327L3.76245 24.3H1.3392C0.983897 24.2996 0.64327 24.1582 0.39216 23.9069C0.141051 23.6555 -1.80164e-07 23.3147 0 22.9594V1.34055C0.00247056 0.98601 0.144315 0.646673 0.394892 0.395844C0.645469 0.145014 0.984663 0.00282777 1.3392 0H25.6608C26.4006 0 27 0.60075 27 1.34055V22.9594C26.9975 23.314 26.8557 23.6533 26.6051 23.9041C26.3545 24.155 26.0153 24.2972 25.6608 24.3H3.8178ZM24.3 16.2V2.7H2.7V21.6L16.2 8.09999L24.3 16.2ZM24.3 20.0178L16.2 11.9178L6.5178 21.6H24.3V20.0178ZM8.09999 10.8C7.38391 10.8 6.69715 10.5155 6.19081 10.0092C5.68446 9.50283 5.4 8.81608 5.4 8.09999C5.4 7.38391 5.68446 6.69715 6.19081 6.19081C6.69715 5.68446 7.38391 5.4 8.09999 5.4C8.81608 5.4 9.50283 5.68446 10.0092 6.19081C10.5155 6.69715 10.8 7.38391 10.8 8.09999C10.8 8.81608 10.5155 9.50283 10.0092 10.0092C9.50283 10.5155 8.81608 10.8 8.09999 10.8Z" fill="#6B7094"/>
</svg>
