<svg width="14" height="14" viewBox="0 0 14 14" fill="none" xmlns="http://www.w3.org/2000/svg">
<path d="M13.4957 2.71925L6.49869 9.71629C6.22581 9.98917 5.78499 9.98917 5.51211 9.71629L3.53195 7.73613C3.25906 7.46324 3.25906 7.02243 3.53195 6.74954C3.80483 6.47666 4.24564 6.47666 4.51853 6.74954L6.0019 8.23292L12.5021 1.73267C12.775 1.45979 13.2158 1.45979 13.4887 1.73267C13.7686 2.00556 13.7686 2.44637 13.4957 2.71925ZM9.63336 0.515189C8.45086 0.0323938 7.10743 -0.135535 5.70802 0.116358C2.86023 0.627142 0.586197 2.92217 0.103402 5.76996C-0.69426 10.493 3.23807 14.5372 7.93308 13.9285C10.7039 13.5717 13.0269 11.5075 13.7546 8.81367C14.0345 7.78511 14.0625 6.79153 13.9016 5.86092C13.8106 5.30116 13.1179 5.08425 12.7121 5.48308C12.5511 5.64401 12.4812 5.88191 12.5231 6.10582C12.6771 7.03642 12.6071 8.03 12.1593 9.08655C11.3476 10.9827 9.58438 12.3752 7.53425 12.5641C3.96576 12.8929 1.00602 9.87022 1.44683 6.28074C1.7477 3.80379 3.74186 1.78865 6.21181 1.44579C7.4223 1.27787 8.56981 1.50877 9.5494 2.01255C9.82228 2.15249 10.1511 2.10352 10.368 1.88661C10.7039 1.55075 10.6199 0.98399 10.2001 0.767082C10.0112 0.683118 9.82228 0.592156 9.63336 0.515189Z" fill="black"/>
</svg>
