<svg width="52" height="53" viewBox="0 0 52 53" fill="none" xmlns="http://www.w3.org/2000/svg">
<path d="M15.7083 15.4583H36.2917V11.0416C36.2917 6.62496 34.6667 4.41663 29.7917 4.41663H22.2083C17.3333 4.41663 15.7083 6.62496 15.7083 11.0416V15.4583ZM34.6667 33.125V41.9583C34.6667 46.375 32.5 48.5833 28.1667 48.5833H23.8333C19.5 48.5833 17.3333 46.375 17.3333 41.9583V33.125H34.6667Z" stroke="#EF233C" stroke-width="1.5" stroke-miterlimit="10" stroke-linecap="round" stroke-linejoin="round"/>
<path d="M36.8333 33.125H15.1667M15.1667 24.2917H21.6667M45.5 22.0834V33.125C45.5 37.5417 43.3333 39.75 39 39.75H34.6667V33.125H17.3333V39.75H13C8.66667 39.75 6.5 37.5417 6.5 33.125V22.0834C6.5 17.6667 8.66667 15.4584 13 15.4584H39C43.3333 15.4584 45.5 17.6667 45.5 22.0834Z" stroke="#EF233C" stroke-width="1.5" stroke-miterlimit="10" stroke-linecap="round" stroke-linejoin="round"/>
</svg>
