<svg width="27" height="28" viewBox="0 0 27 28" fill="none" xmlns="http://www.w3.org/2000/svg">
<path d="M9 24.5V19.8334H18V24.5H9ZM3.375 18.9584V13.6209C3.375 13.3681 3.42187 13.125 3.51562 12.8917C3.60938 12.6584 3.75 12.4639 3.9375 12.3084L12.375 4.55005C12.525 4.39449 12.6986 4.28249 12.8959 4.21405C13.0924 4.14638 13.2937 4.11255 13.5 4.11255C13.7063 4.11255 13.908 4.14638 14.1053 4.21405C14.3018 4.28249 14.475 4.39449 14.625 4.55005L16.875 6.62088L3.375 18.9584ZM5.0625 24.5C4.59375 24.5 4.1955 24.3297 3.86775 23.989C3.53925 23.6492 3.375 23.2362 3.375 22.75V20.5334L7.875 16.3917V24.5H5.0625ZM19.125 24.5V14.9334L14.3156 10.5L17.7188 7.37922L23.0625 12.3084C23.25 12.4834 23.3906 12.6825 23.4844 12.9057C23.5781 13.1297 23.625 13.3681 23.625 13.6209V22.75C23.625 23.2362 23.4608 23.6492 23.1322 23.989C22.8045 24.3297 22.4062 24.5 21.9375 24.5H19.125Z" fill="black"/>
</svg>
