<svg width="24" height="24" viewBox="0 0 24 24" fill="none" xmlns="http://www.w3.org/2000/svg">
<path d="M16.6462 16.9512L18.0862 15.5112L13.2062 10.6312L9.91624 13.9212C9.52625 14.3112 8.89625 14.3112 8.50625 13.9212L2.50625 7.91124C2.11625 7.52124 2.11625 6.89124 2.50625 6.50124C2.89625 6.11124 3.52624 6.11124 3.91624 6.50124L9.20624 11.8012L12.4962 8.51124C12.8862 8.12124 13.5162 8.12124 13.9062 8.51124L19.4962 14.0912L20.9362 12.6512C21.2462 12.3412 21.7862 12.5612 21.7862 13.0012V17.2912C21.7862 17.5712 21.5662 17.7912 21.2862 17.7912H16.9962C16.5562 17.8012 16.3362 17.2612 16.6462 16.9512Z" fill="#E57361"/>
</svg>
