<svg width="17" height="22" viewBox="0 0 17 22" fill="none" xmlns="http://www.w3.org/2000/svg">
<path d="M5.50996 4.58542L4.26206 1.32849C5.1875 1.42396 6.11449 1.16332 6.84833 0.601375C7.04691 0.366132 7.30774 0.188937 7.60223 0.0898292C7.8969 -0.00926836 8.21353 -0.0268364 8.51756 0.0394225C8.84413 0.123054 9.10671 0.36078 9.21794 0.673563C9.2689 0.959021 9.44493 1.20823 9.69933 1.35522C10.2402 1.55552 10.843 1.51523 11.3514 1.24504C11.5987 1.1616 12.0616 1.00369 12.1221 1.07988C12.0556 2.35309 11.6915 3.59385 11.058 4.70664C10.2207 4.95945 9.35044 5.09178 8.47439 5.09999L8.47323 5.0998C7.46359 5.08719 6.46286 4.91344 5.50999 4.58542H5.50996ZM16.5574 17.6612C16.4496 18.5588 16.0624 19.4019 15.4487 20.0755C14.8349 20.7492 14.0244 21.2204 13.1277 21.4251C9.9591 22.1916 6.64876 22.1916 3.47997 21.4251C2.58331 21.2204 1.77284 20.7492 1.159 20.0755C0.545165 19.4019 0.15808 18.5589 0.0503297 17.6612C-0.521286 11.4337 3.94015 6.97181 5.12516 5.90424H5.12497C6.19879 6.26226 7.3232 6.45167 8.45717 6.4654H8.47117C9.52129 6.457 10.5644 6.29565 11.5663 5.98632C12.8628 7.16349 17.1151 11.5432 16.5574 17.6612L16.5574 17.6612ZM8.59658 13.213C8.56877 13.213 8.55476 13.1993 8.52676 13.1993C7.52295 12.7066 7.6066 12.4328 7.6902 12.1865C7.74641 12.0345 7.84872 11.9031 7.98331 11.8101C8.1179 11.7171 8.27837 11.6669 8.44311 11.6664H8.45712C8.61952 11.6589 8.78057 11.7009 8.9177 11.7866C9.05501 11.8724 9.16199 11.9976 9.22384 12.1454C9.36894 12.4945 9.77215 12.665 10.13 12.5287C10.3027 12.4624 10.441 12.331 10.5143 12.1638C10.5877 11.9967 10.5898 11.8076 10.5204 11.6391C10.2817 11.0391 9.77115 10.5833 9.14018 10.4073V9.87342C9.13902 9.49592 8.82762 9.1902 8.44309 9.18907C8.25753 9.18735 8.07918 9.25877 7.94808 9.38765C7.81699 9.51635 7.74405 9.69144 7.746 9.87342V10.4208C7.09656 10.6299 6.58524 11.1267 6.36561 11.7622C5.80798 13.4183 7.43908 14.1985 7.96887 14.4448C7.99668 14.4585 8.01069 14.4721 8.0385 14.4721C9.0563 14.9647 9.29321 15.1975 9.19557 15.608C9.12594 15.8954 8.76339 16.0185 8.47065 16.046H8.37301L8.3732 16.0462C8.16703 16.0655 7.9595 16.0252 7.77629 15.9303C7.59307 15.8356 7.44195 15.6903 7.34158 15.5123C7.19201 15.1658 6.7865 15.0017 6.43173 15.144C6.07676 15.2864 5.90443 15.6823 6.04506 16.0325C6.34907 16.7248 6.98897 17.2192 7.74596 17.3463V17.6202C7.74402 17.8021 7.81696 17.9772 7.94805 18.1061C8.07914 18.2348 8.2575 18.3062 8.44306 18.3045C8.82759 18.3034 9.139 17.9977 9.14015 17.6202V17.2917C9.478 17.2125 9.78745 17.0446 10.0356 16.806C10.2836 16.5673 10.4608 16.2668 10.5481 15.9366C10.9387 14.3354 9.47485 13.6373 8.59652 13.213L8.59658 13.213Z" fill="black"/>
</svg>
