<svg width="30" height="30" viewBox="0 0 30 30" fill="none" xmlns="http://www.w3.org/2000/svg">
<g clip-path="url(#clip0_1_11595)">
<path d="M15.125 30.0016C16.1196 30.0016 17.0734 29.6065 17.7766 28.9033C18.4799 28.2 18.875 27.2462 18.875 26.2516H11.375C11.375 27.2462 11.7701 28.2 12.4733 28.9033C13.1766 29.6065 14.1304 30.0016 15.125 30.0016ZM15.125 3.59789L13.6306 3.89977C11.9356 4.24514 10.4119 5.16558 9.31747 6.50531C8.22307 7.84503 7.62519 9.52174 7.625 11.2516C7.625 12.4291 7.37375 15.371 6.76437 18.2679C6.46438 19.706 6.05937 21.2041 5.52125 22.5016H24.7288C24.1906 21.2041 23.7875 19.7079 23.4856 18.2679C22.8762 15.371 22.625 12.4291 22.625 11.2516C22.6244 9.52206 22.0263 7.84579 20.9319 6.50646C19.8376 5.16712 18.3141 4.24695 16.6194 3.90164L15.125 3.59602V3.59789ZM26.7875 22.5016C27.2056 23.3398 27.6894 24.0035 28.25 24.3766H2C2.56063 24.0035 3.04437 23.3398 3.4625 22.5016C5.15 19.1266 5.75 12.9016 5.75 11.2516C5.75 6.71414 8.975 2.92664 13.2594 2.06227C13.2332 1.80155 13.262 1.53825 13.3438 1.28934C13.4257 1.04043 13.5588 0.811434 13.7345 0.617124C13.9103 0.422815 14.1249 0.267505 14.3644 0.161212C14.6039 0.0549178 14.863 0 15.125 0C15.387 0 15.6461 0.0549178 15.8856 0.161212C16.1251 0.267505 16.3397 0.422815 16.5155 0.617124C16.6912 0.811434 16.8243 1.04043 16.9062 1.28934C16.988 1.53825 17.0168 1.80155 16.9906 2.06227C19.1099 2.49333 21.0151 3.64357 22.3836 5.3182C23.752 6.99284 24.4997 9.08897 24.5 11.2516C24.5 12.9016 25.1 19.1266 26.7875 22.5016Z" fill="black"/>
</g>
<defs>
<clipPath id="clip0_1_11595">
<rect width="30" height="30" fill="white"/>
</clipPath>
</defs>
</svg>
