<svg width="16" height="16" viewBox="0 0 16 16" fill="none" xmlns="http://www.w3.org/2000/svg">
<g clip-path="url(#clip0_1_12550)">
<path d="M15.5 13.5004H8.5C8.224 13.5004 8 13.2764 8 13.0004C8 12.7244 8 3.27637 8 3.00037C8 2.72437 8.224 2.50037 8.5 2.50037H15.5C15.776 2.50037 16 2.72437 16 3.00037V13.0004C16 13.2764 15.776 13.5004 15.5 13.5004Z" fill="#F3F4F6"/>
<g clip-path="url(#clip1_1_12550)">
<path d="M10.5 5.50037H8.5C8.224 5.50037 8 5.27637 8 5.00037C8 4.72437 8.224 4.50037 8.5 4.50037H10.5C10.776 4.50037 11 4.72437 11 5.00037C11 5.27637 10.776 5.50037 10.5 5.50037Z" fill="#388E3C"/>
<path d="M10.5 7.50037H8.5C8.224 7.50037 8 7.27637 8 7.00037C8 6.72437 8.224 6.50037 8.5 6.50037H10.5C10.776 6.50037 11 6.72437 11 7.00037C11 7.27637 10.776 7.50037 10.5 7.50037Z" fill="#388E3C"/>
<path d="M10.5 9.50037H8.5C8.224 9.50037 8 9.27637 8 9.00037C8 8.72437 8.224 8.50037 8.5 8.50037H10.5C10.776 8.50037 11 8.72437 11 9.00037C11 9.27637 10.776 9.50037 10.5 9.50037Z" fill="#388E3C"/>
<path d="M10.5 11.5004H8.5C8.224 11.5004 8 11.2764 8 11.0004C8 10.7244 8.224 10.5004 8.5 10.5004H10.5C10.776 10.5004 11 10.7244 11 11.0004C11 11.2764 10.776 11.5004 10.5 11.5004Z" fill="#388E3C"/>
<path d="M13.5 5.50037H12.5C12.224 5.50037 12 5.27637 12 5.00037C12 4.72437 12.224 4.50037 12.5 4.50037H13.5C13.776 4.50037 14 4.72437 14 5.00037C14 5.27637 13.776 5.50037 13.5 5.50037Z" fill="#388E3C"/>
<path d="M13.5 7.50037H12.5C12.224 7.50037 12 7.27637 12 7.00037C12 6.72437 12.224 6.50037 12.5 6.50037H13.5C13.776 6.50037 14 6.72437 14 7.00037C14 7.27637 13.776 7.50037 13.5 7.50037Z" fill="#388E3C"/>
<path d="M13.5 9.50037H12.5C12.224 9.50037 12 9.27637 12 9.00037C12 8.72437 12.224 8.50037 12.5 8.50037H13.5C13.776 8.50037 14 8.72437 14 9.00037C14 9.27637 13.776 9.50037 13.5 9.50037Z" fill="#388E3C"/>
<path d="M13.5 11.5004H12.5C12.224 11.5004 12 11.2764 12 11.0004C12 10.7244 12.224 10.5004 12.5 10.5004H13.5C13.776 10.5004 14 10.7244 14 11.0004C14 11.2764 13.776 11.5004 13.5 11.5004Z" fill="#388E3C"/>
</g>
<path d="M8.819 0.615399C8.705 0.520399 8.552 0.479399 8.408 0.509399L0.408 2.0094C0.171 2.0534 0 2.2594 0 2.5004V13.5004C0 13.7404 0.171 13.9474 0.408 13.9914L8.408 15.4914C8.438 15.4974 8.469 15.5004 8.5 15.5004C8.616 15.5004 8.729 15.4604 8.819 15.3854C8.934 15.2904 9 15.1484 9 15.0004V1.0004C9 0.851399 8.934 0.710399 8.819 0.615399Z" fill="#2E7D32"/>
<path d="M6.87615 9.67128L5.29515 7.86428L6.89415 5.80828C7.06415 5.59028 7.02415 5.27628 6.80715 5.10628C6.59015 4.93628 6.27615 4.97628 6.10515 5.19328L4.62415 7.09728L3.37615 5.67128C3.19315 5.46128 2.87715 5.44228 2.67115 5.62428C2.46315 5.80628 2.44215 6.12228 2.62415 6.32928L3.99915 7.90128L2.60515 9.69328C2.43515 9.91128 2.47515 10.2253 2.69215 10.3953C2.78415 10.4663 2.89315 10.5003 3.00015 10.5003C3.14915 10.5003 3.29615 10.4343 3.39515 10.3073L4.67015 8.66728L6.12415 10.3283C6.22315 10.4423 6.36115 10.5003 6.50015 10.5003C6.61715 10.5003 6.73415 10.4593 6.82915 10.3763C7.03715 10.1943 7.05815 9.87828 6.87615 9.67128Z" fill="#F9FAFB"/>
</g>
<defs>
<clipPath id="clip0_1_12550">
<rect width="16" height="16" fill="white"/>
</clipPath>
<clipPath id="clip1_1_12550">
<rect width="6" height="6.99998" fill="white" transform="translate(8 4.50037)"/>
</clipPath>
</defs>
</svg>
