<svg width="24" height="24" viewBox="0 0 24 24" fill="none" xmlns="http://www.w3.org/2000/svg">
<path d="M5.88889 19.6388C5.88889 18.0181 6.53273 16.4637 7.67879 15.3176C8.82484 14.1716 10.3792 13.5277 12 13.5277C13.6208 13.5277 15.1751 14.1716 16.3212 15.3176C17.4673 16.4637 18.1111 18.0181 18.1111 19.6388H16.5833C16.5833 18.4233 16.1004 17.2575 15.2409 16.3979C14.3814 15.5384 13.2156 15.0555 12 15.0555C10.7844 15.0555 9.61863 15.5384 8.75909 16.3979C7.89955 17.2575 7.41666 18.4233 7.41666 19.6388H5.88889ZM12 12.7638C9.4677 12.7638 7.41666 10.7128 7.41666 8.1805C7.41666 5.64821 9.4677 3.59717 12 3.59717C14.5323 3.59717 16.5833 5.64821 16.5833 8.1805C16.5833 10.7128 14.5323 12.7638 12 12.7638ZM12 11.2361C13.6882 11.2361 15.0556 9.8687 15.0556 8.1805C15.0556 6.49231 13.6882 5.12495 12 5.12495C10.3118 5.12495 8.94444 6.49231 8.94444 8.1805C8.94444 9.8687 10.3118 11.2361 12 11.2361Z" fill="#ACB4C3"/>
</svg>
