<svg width="35" height="33" viewBox="0 0 35 33" fill="none" xmlns="http://www.w3.org/2000/svg">
<path d="M10.5 3.29999C9.57174 3.29999 8.6815 3.64767 8.02513 4.26654C7.36875 4.88541 7 5.72477 7 6.59999V26.4C7 27.2752 7.36875 28.1146 8.02513 28.7334C8.6815 29.3523 9.57174 29.7 10.5 29.7H27.125C27.3571 29.7 27.5796 29.6131 27.7437 29.4584C27.9078 29.3036 28 29.0938 28 28.875C28 28.6562 27.9078 28.4463 27.7437 28.2916C27.5796 28.1369 27.3571 28.05 27.125 28.05H10.5C10.0359 28.05 9.59075 27.8762 9.26256 27.5667C8.93437 27.2573 8.75 26.8376 8.75 26.4H26.25C26.7141 26.4 27.1592 26.2262 27.4874 25.9167C27.8156 25.6073 28 25.1876 28 24.75V6.59999C28 5.72477 27.6313 4.88541 26.9749 4.26654C26.3185 3.64767 25.4283 3.29999 24.5 3.29999H10.5ZM18.8125 9.48749C18.8125 9.81569 18.6742 10.1305 18.4281 10.3625C18.1819 10.5946 17.8481 10.725 17.5 10.725C17.1519 10.725 16.8181 10.5946 16.5719 10.3625C16.3258 10.1305 16.1875 9.81569 16.1875 9.48749C16.1875 9.15928 16.3258 8.84452 16.5719 8.61244C16.8181 8.38037 17.1519 8.24999 17.5 8.24999C17.8481 8.24999 18.1819 8.38037 18.4281 8.61244C18.6742 8.84452 18.8125 9.15928 18.8125 9.48749ZM18.375 20.625C18.375 20.8438 18.2828 21.0536 18.1187 21.2084C17.9546 21.3631 17.7321 21.45 17.5 21.45C17.2679 21.45 17.0454 21.3631 16.8813 21.2084C16.7172 21.0536 16.625 20.8438 16.625 20.625V14.025C16.625 13.8062 16.7172 13.5963 16.8813 13.4416C17.0454 13.2869 17.2679 13.2 17.5 13.2C17.7321 13.2 17.9546 13.2869 18.1187 13.4416C18.2828 13.5963 18.375 13.8062 18.375 14.025V20.625Z" fill="#4B5869"/>
</svg>
