<svg width="24" height="24" viewBox="0 0 24 24" fill="none" xmlns="http://www.w3.org/2000/svg">
<path d="M18 12H6V15H18V12ZM23.5625 4.92188L17.4438 0.328125C17.1625 0.117188 16.7812 0 16.3813 0H16V6H24V5.71406C24 5.41875 23.8438 5.13281 23.5625 4.92188ZM14 6.375V0H1.5C0.66875 0 0 0.501562 0 1.125V22.875C0 23.4984 0.66875 24 1.5 24H22.5C23.3312 24 24 23.4984 24 22.875V7.5H15.5C14.675 7.5 14 6.99375 14 6.375ZM4 3.375C4 3.16781 4.22375 3 4.5 3H9.5C9.77625 3 10 3.16781 10 3.375V4.125C10 4.33219 9.77625 4.5 9.5 4.5H4.5C4.22375 4.5 4 4.33219 4 4.125V3.375ZM4 6.375C4 6.16781 4.22375 6 4.5 6H9.5C9.77625 6 10 6.16781 10 6.375V7.125C10 7.33219 9.77625 7.5 9.5 7.5H4.5C4.22375 7.5 4 7.33219 4 7.125V6.375ZM20 20.625C20 20.8322 19.7763 21 19.5 21H14.5C14.2238 21 14 20.8322 14 20.625V19.875C14 19.6678 14.2238 19.5 14.5 19.5H19.5C19.7763 19.5 20 19.6678 20 19.875V20.625ZM20 11.25V15.75C20 16.1644 19.5525 16.5 19 16.5H5C4.4475 16.5 4 16.1644 4 15.75V11.25C4 10.8356 4.4475 10.5 5 10.5H19C19.5525 10.5 20 10.8356 20 11.25Z" fill="black"/>
</svg>
