<svg width="24" height="24" viewBox="0 0 24 24" fill="none" xmlns="http://www.w3.org/2000/svg">
<path d="M17.3472 10.4722H18.1111C18.3137 10.4722 18.508 10.5527 18.6513 10.6959C18.7945 10.8392 18.875 11.0335 18.875 11.2361V18.875C18.875 19.0776 18.7945 19.2719 18.6513 19.4151C18.508 19.5584 18.3137 19.6389 18.1111 19.6389H5.88889C5.68629 19.6389 5.49199 19.5584 5.34874 19.4151C5.20548 19.2719 5.125 19.0776 5.125 18.875V11.2361C5.125 11.0335 5.20548 10.8392 5.34874 10.6959C5.49199 10.5527 5.68629 10.4722 5.88889 10.4722H6.65278V9.70831C6.65278 9.0061 6.79109 8.31077 7.05981 7.66201C7.32853 7.01326 7.72241 6.42378 8.21894 5.92725C8.71548 5.43071 9.30495 5.03684 9.95371 4.76812C10.6025 4.49939 11.2978 4.36108 12 4.36108C12.7022 4.36108 13.3975 4.49939 14.0463 4.76812C14.695 5.03684 15.2845 5.43071 15.7811 5.92725C16.2776 6.42378 16.6715 7.01326 16.9402 7.66201C17.2089 8.31077 17.3472 9.0061 17.3472 9.70831V10.4722ZM6.65278 12V18.1111H17.3472V12H6.65278ZM11.2361 13.5278H12.7639V16.5833H11.2361V13.5278ZM15.8194 10.4722V9.70831C15.8194 8.69533 15.417 7.72384 14.7008 7.00755C13.9845 6.29127 13.013 5.88886 12 5.88886C10.987 5.88886 10.0155 6.29127 9.29924 7.00755C8.58296 7.72384 8.18056 8.69533 8.18056 9.70831V10.4722H15.8194Z" fill="#ACB4C3"/>
</svg>
